<?xml version="1.0" encoding="UTF-8"?>
<!-- Generator: Adobe Illustrator 26.4.1, SVG Export Plug-In . SVG Version: 6.00 Build 0)  -->
<svg xmlns="http://www.w3.org/2000/svg" xmlns:xlink="http://www.w3.org/1999/xlink" version="1.1" id="Layer_1" x="0px" y="0px" viewBox="0 0 400 170.41" style="enable-background:new 0 0 400 170.41;" xml:space="preserve">
<style type="text/css">
	.st0{fill:#D31C1C;}
	.st1{fill:#279100;}
	.st2{fill:#EB8623;}
	.st3{fill:#FFFFFF;}
</style>
<g>
	<path class="st0" d="M360.24,170.41H43.41c-3.38,0-5.9-3.12-5.19-6.43L72.67,4.19C73.2,1.74,75.36,0,77.86,0h316.83   c3.38,0,5.9,3.12,5.19,6.43l-34.45,159.79C364.9,168.66,362.74,170.41,360.24,170.41z"></path>
	<path class="st1" d="M242.46,170.41H117.46c-3.38,0-5.9-3.12-5.19-6.43L146.72,4.19c0.53-2.44,2.69-4.19,5.19-4.19h124.99   c3.38,0,5.9,3.12,5.19,6.43l-34.45,159.79C247.12,168.66,244.96,170.41,242.46,170.41z"></path>
	<path class="st2" d="M122.39,170.41H5.31c-3.38,0-5.9-3.12-5.19-6.43L34.57,4.19C35.1,1.74,37.26,0,39.76,0h117.08   c3.38,0,5.9,3.12,5.19,6.43l-34.45,159.79C127.05,168.66,124.89,170.41,122.39,170.41z"></path>
	<g>
		<path class="st3" d="M64.66,152c-10.58,0-18.96-1.76-25.13-5.29c-6.17-3.53-10.4-8.13-12.68-13.82    c-2.28-5.69-2.79-11.75-1.51-18.18c0.23-0.99,0.78-1.88,1.65-2.69c0.87-0.8,1.79-1.21,2.74-1.21h20c1.48,0,2.55,0.31,3.2,0.93    c0.65,0.62,1.18,1.42,1.59,2.41c0.42,1.86,1.19,3.65,2.33,5.38c1.13,1.73,2.85,3.13,5.15,4.17c2.3,1.05,5.24,1.58,8.84,1.58    c6.13,0,11.02-1.11,14.66-3.34c3.64-2.23,5.9-5.26,6.78-9.09c0.66-2.84,0.34-5.13-0.95-6.86c-1.29-1.73-3.65-3.31-7.08-4.73    c-3.43-1.42-8.09-2.87-13.99-4.36c-7.59-1.98-13.85-4.54-18.78-7.7c-4.93-3.15-8.29-7.3-10.06-12.43    c-1.78-5.13-1.78-11.54-0.01-19.2c1.74-7.55,5.13-14.29,10.15-20.22c5.02-5.94,11.2-10.58,18.53-13.92    c7.33-3.34,15.49-5.01,24.49-5.01c7.3,0,13.47,1.12,18.51,3.34c5.04,2.23,9.04,5.2,11.99,8.91c2.95,3.71,4.93,7.64,5.93,11.78    c1,4.15,1.09,8.2,0.29,12.15c-0.23,0.99-0.73,1.89-1.49,2.69c-0.77,0.81-1.68,1.2-2.74,1.2h-20.95c-1.17,0-2.11-0.25-2.84-0.74    c-0.73-0.49-1.29-1.3-1.67-2.41c-0.01-2.72-1.12-5.1-3.35-7.14c-2.23-2.04-5.51-3.06-9.85-3.06c-4.66,0-8.5,0.96-11.54,2.88    s-5.01,4.86-5.92,8.81c-0.57,2.48-0.36,4.64,0.64,6.5c1,1.86,3.01,3.47,6.03,4.82c3.02,1.36,7.27,2.78,12.74,4.27    c9.14,2.1,16.31,4.73,21.51,7.89c5.2,3.16,8.62,7.24,10.27,12.25c1.65,5.01,1.6,11.29-0.14,18.83    c-1.94,8.41-5.68,15.65-11.21,21.71c-5.53,6.06-12.24,10.74-20.14,14.01C82.74,150.36,74.08,152,64.66,152z"></path>
		<path class="st3" d="M189.06,152c-6.03,0-11.56-0.9-16.6-2.69c-5.04-1.79-9.26-4.48-12.66-8.07c-3.41-3.58-5.74-8.04-6.99-13.36    c-1.26-5.32-1.18-11.5,0.24-18.56c0.26-1.12,0.8-2.07,1.62-2.88c0.82-0.8,1.76-1.21,2.82-1.21h21.43c1.48,0,2.52,0.43,3.11,1.3    c0.59,0.87,0.95,2.17,1.08,3.9c-0.17,3.47,0.22,6.28,1.14,8.44c0.93,2.17,2.41,3.77,4.44,4.82c2.03,1.05,4.48,1.58,7.33,1.58    c5.29,0,9.83-2.01,13.61-6.03c3.79-4.02,6.58-9.93,8.38-17.72l12.39-53.62h-51.43c-1.06,0-1.88-0.43-2.48-1.3    c-0.59-0.86-0.73-1.98-0.42-3.34l4.24-18.37c0.31-1.36,0.97-2.47,1.96-3.34c0.99-0.86,2.02-1.3,3.08-1.3h76.82    c1.16,0,2.04,0.43,2.64,1.3c0.59,0.87,0.73,1.98,0.42,3.34l-17.92,77.56c-2.49,10.76-6.57,19.83-12.23,27.18    c-5.67,7.36-12.46,12.93-20.37,16.7C206.82,150.12,198.27,152,189.06,152z"></path>
		<path class="st3" d="M270.12,150.15c-1.17,0-2.01-0.46-2.54-1.39c-0.53-0.93-0.65-2.01-0.36-3.25L295.09,24.9    c0.31-1.36,0.94-2.47,1.88-3.34c0.94-0.86,1.99-1.3,3.16-1.3h20c1.16,0,2.01,0.43,2.56,1.3c0.54,0.87,0.65,1.98,0.34,3.34    l-9.52,41.19l39.14-42.3c0.59-0.74,1.49-1.51,2.68-2.32c1.19-0.8,2.63-1.21,4.33-1.21h22.86c0.95,0,1.65,0.4,2.1,1.21    c0.45,0.81,0.56,1.7,0.33,2.69c-0.2,0.87-0.53,1.61-0.99,2.22l-51.04,56.04l26.72,61.6c0.31,0.49,0.35,1.24,0.12,2.22    c-0.23,0.99-0.75,1.89-1.57,2.69c-0.82,0.81-1.71,1.21-2.66,1.21h-23.65c-1.9,0-3.25-0.49-4.02-1.48    c-0.78-0.99-1.27-1.73-1.47-2.23l-20.84-45.83l-10.38,44.9c-0.29,1.24-0.91,2.32-1.86,3.25c-0.96,0.93-2.02,1.39-3.18,1.39H270.12    z"></path>
	</g>
</g>
</svg>
